<svg width="24" height="23" viewBox="0 0 24 23" fill="none" xmlns="http://www.w3.org/2000/svg">
<g clip-path="url(#clip0_3024_2475)">
<path d="M12 0.5C12.0635 0.5 12.1249 0.52266 12.1732 0.563902C12.1732 0.56394 12.1733 0.563979 12.1733 0.564018L23 9.84402V20.7001C23 21.1774 22.8104 21.6353 22.4728 21.9728C22.1352 22.3104 21.6774 22.5001 21.2 22.5001H15.0667C14.9959 22.5001 14.9281 22.472 14.8781 22.4219C14.8281 22.3719 14.8 22.3041 14.8 22.2334V17.6334C14.8 16.8908 14.505 16.1786 13.9799 15.6535C13.4548 15.1284 12.7426 14.8334 12 14.8334C11.2574 14.8334 10.5452 15.1284 10.0201 15.6535C9.495 16.1786 9.2 16.8908 9.2 17.6334V22.2334C9.2 22.3041 9.1719 22.3719 9.12189 22.4219C9.07189 22.472 9.00406 22.5001 8.93333 22.5001H2.8C2.32261 22.5001 1.86477 22.3104 1.52721 21.9728C1.18964 21.6353 1 21.1774 1 20.7001V9.84402L11.8267 0.564018C11.8267 0.563979 11.8268 0.56394 11.8268 0.563902C11.8751 0.52266 11.9365 0.5 12 0.5Z" stroke="#606060"/>
</g>
<defs>
<clipPath id="clip0_3024_2475">
<rect width="23" height="23" fill="white" transform="translate(0.5)"/>
</clipPath>
</defs>
</svg>
