<svg width="24" height="24" viewBox="0 0 24 24" fill="none" xmlns="http://www.w3.org/2000/svg">
<path d="M8.69807 19.8015L8.41908 19.6936C8.18737 19.6041 7.97036 19.4972 7.76746 19.3733C7.55033 19.2407 7.33838 19.0986 7.13157 18.9468L6.90275 18.779L6.64132 18.8894L3.49622 20.2175L0.652792 15.2815L3.37744 13.2079L3.61095 13.0302L3.56965 12.7396C3.55279 12.621 3.54478 12.5094 3.54478 12.4044V11.5956C3.54478 11.4906 3.55279 11.379 3.56965 11.2604L3.61095 10.9698L3.37744 10.7921L0.652793 8.71848L3.49622 3.78254L6.64132 5.11062L6.90222 5.22079L7.13087 5.05367C7.33591 4.9038 7.55067 4.76301 7.77526 4.63134C7.99615 4.50184 8.21504 4.39202 8.43193 4.3012L8.69922 4.18927L8.73498 3.90171L9.15808 0.5H14.8419L15.265 3.90171L15.3019 4.19853L15.5809 4.30637C15.8126 4.39594 16.0296 4.50281 16.2325 4.62672C16.4497 4.75932 16.6616 4.90145 16.8684 5.05316L17.0973 5.22101L17.3587 5.11062L20.5038 3.78254L23.3472 8.71848L20.6226 10.7921L20.389 10.9698L20.4303 11.2604C20.4472 11.379 20.4552 11.4906 20.4552 11.5956V12.4044C20.4552 12.4836 20.4432 12.5727 20.4146 12.6733L20.3213 13.0013L20.5927 13.2079L23.3174 15.2815L20.4746 20.2163L17.3601 18.89L17.0986 18.7786L16.8691 18.9463C16.6641 19.0962 16.4493 19.237 16.2247 19.3687C16.0039 19.4982 15.785 19.608 15.5681 19.6988L15.3008 19.8107L15.265 20.0983L14.8419 23.5H9.15808L8.73498 20.0983L8.69807 19.8015ZM12.0597 16.7C13.3473 16.7 14.4598 16.2367 15.3694 15.3227L7.8806 12H7.3806C7.3806 12.0001 7.3806 12.0002 7.3806 12.0003C7.38068 13.2899 7.83399 14.406 8.73228 15.3204C9.63417 16.2384 10.754 16.7 12.0597 16.7Z" stroke="#606060"/>
</svg>
