<svg width="22" height="22" viewBox="0 0 22 22" fill="none" xmlns="http://www.w3.org/2000/svg">
<path d="M1.83333 0.5H20.1667C20.5203 0.5 20.8594 0.640476 21.1095 0.890524C21.3595 1.14057 21.5 1.47971 21.5 1.83333V20.1667C21.5 20.5203 21.3595 20.8594 21.1095 21.1095C20.8594 21.3595 20.5203 21.5 20.1667 21.5H1.83333C1.47971 21.5 1.14057 21.3595 0.890524 21.1095C0.640476 20.8594 0.5 20.5203 0.5 20.1667V1.83333C0.5 1.47971 0.640476 1.14057 0.890524 0.890524C1.14057 0.640476 1.47971 0.5 1.83333 0.5Z" stroke="#606060" stroke-linecap="round" stroke-linejoin="round"/>
<path d="M9.16743 15.2778L12.223 17.7222L17.1119 11.6111M4.88965 5.5H17.1119M4.88965 10.3889H9.77854" stroke="#606060" stroke-linecap="round" stroke-linejoin="round"/>
</svg>
