<svg width="28" height="22" viewBox="0 0 28 22" fill="none" xmlns="http://www.w3.org/2000/svg">
<path d="M2.58203 1.91643L2.58239 1.91607C3.25464 1.24324 4.15045 0.878747 5.54733 0.690871C6.95859 0.501063 8.80454 0.5 11.3327 0.5H16.666C19.1942 0.5 21.0401 0.501063 22.4514 0.690871C23.8482 0.878747 24.7441 1.24324 25.4163 1.91607L25.4167 1.91643C26.3255 2.8242 26.6651 4.13137 26.7778 6.5H1.22095C1.33356 4.13137 1.67318 2.8242 2.58203 1.91643ZM25.4166 19.417L25.4163 19.4173C24.7441 20.0901 23.8482 20.4546 22.4514 20.6425C21.0401 20.8323 19.1942 20.8333 16.666 20.8333H11.3327C8.80454 20.8333 6.95859 20.8323 5.54733 20.6425C4.15045 20.4546 3.25464 20.0901 2.58239 19.4173L2.58208 19.417C1.90926 18.7447 1.54476 17.8489 1.35689 16.452C1.16708 15.0408 1.16602 13.1948 1.16602 10.6667C1.16602 10.2611 1.16602 9.87261 1.16688 9.5H26.8318C26.8327 9.87261 26.8327 10.2611 26.8327 10.6667C26.8327 13.1948 26.8316 15.0408 26.6418 16.452C26.4539 17.8489 26.0894 18.7447 25.4166 19.417Z" stroke="#606060"/>
</svg>
